# xmcd
#
# Track frame offsets:
#  150
#  25228
#  44544
#  67964
#  85152
#  102869
#  124707
#  146548
#  159401
#  177078
#  188864
#  216111
#  237742
#  252566
#  281506
#
# Disc length: 4016 seconds
#
# Revision: 2
# Processed by: cddbd v1.5.1PL0 Copyright (c) Steve Scherf et al.
# Submitted via: Collectorz.com_Music_Collector 6.9
#
DISCID=d60fae0f
DTITLE=Various Artist - Darlington R'n'B Club Friday Night Blues
DYEAR=1998
DGENRE=Blues
TTITLE0=Dr. Brown's Blues Band - Everyday I Have The Blues
TTITLE1=George Shovlin Band - Viola Lee Blues
TTITLE2=The Moochers - Outta Shape
TTITLE3=Connie Lush and Blues Shouter - Sugar Man
TTITLE4=The Producers - You've Got To Change
TTITLE5=Otis Grand - Blues Is King
TTITLE6=Saints Or Sinners - Triple Trouble
TTITLE7=Nine Below Zero - Hip Shake
TTITLE8=The Hamsters - Boogie Man
TTITLE9=King Ivory Band - I Can't Get Enough Of That Stuff
TTITLE10=Out Of The Blue - Blues In A Bottle
TTITLE11=Steve Williams Blues Deluxe - Full Moon On Broadway
TTITLE12=Denny Newman - This World
TTITLE13=Big Joe Louis and His Blues Kings - Leavin' On My Mind
TTITLE14=Frank White Band - Keep Me Hanging On
EXTD=
EXTT0=
EXTT1=
EXTT2=
EXTT3=
EXTT4=
EXTT5=
EXTT6=
EXTT7=
EXTT8=
EXTT9=
EXTT10=
EXTT11=
EXTT12=
EXTT13=
EXTT14=
PLAYORDER=
